<svg viewBox="0 114 940 470" xmlns="http://www.w3.org/2000/svg" role="img" aria-labelledby="mx-title mx-desc" font-family="&#39;IBM Plex Mono&#39;,&#39;Courier New&#39;,monospace"><title id="mx-title">What each stage is allowed to know</title><desc id="mx-desc">Matrix of 5 workflow stages by 6 context layers. Each tile&#39;s fill shows read depth (empty, half, full) and an accent corner tag shows the write action: a plus for creates, a refresh mark for updates. An update also reads the layer, so its read fill remains visible beneath the tag.</desc><rect x="0" y="0" width="940" height="584" fill="#fafaf7"></rect><text x="300" y="150" font-size="11.5" text-anchor="middle" fill="#7c6f64">Task</text><text x="300" y="164" font-size="11.5" text-anchor="middle" fill="#7c6f64">description</text><text x="410" y="157" font-size="11.5" text-anchor="middle" fill="#7c6f64">Plan</text><text x="520" y="157" font-size="11.5" text-anchor="middle" fill="#7c6f64">Codebase</text><text x="630" y="157" font-size="11.5" text-anchor="middle" fill="#7c6f64">Diff</text><text x="740" y="150" font-size="11.5" text-anchor="middle" fill="#7c6f64">Persisted</text><text x="740" y="164" font-size="11.5" text-anchor="middle" fill="#7c6f64">memory</text><text x="850" y="157" font-size="11.5" text-anchor="middle" fill="#7c6f64">History</text><text x="32" y="194" font-size="12.5" fill="#2b2b2b">Brainstorming</text><text x="32" y="254" font-size="12.5" fill="#2b2b2b">Planning</text><text x="32" y="314" font-size="12.5" fill="#2b2b2b">Execution</text><text x="32" y="374" font-size="12.5" fill="#2b2b2b">Internal review</text><text x="32" y="434" font-size="12.5" fill="#2b2b2b">Documentation</text><rect x="287" y="177" width="26" height="26" rx="4" fill="none" stroke="#d6d3cc" stroke-width="1.2"></rect><circle cx="313" cy="177" r="7" fill="#076678"></circle><line x1="309.92" y1="177" x2="316.08" y2="177" stroke="#fafaf7" stroke-width="1.55" stroke-linecap="round"></line><line x1="313" y1="173.92" x2="313" y2="180.08" stroke="#fafaf7" stroke-width="1.55" stroke-linecap="round"></line><rect x="397" y="177" width="26" height="26" rx="4" fill="none" stroke="#d6d3cc" stroke-width="1" stroke-dasharray="2,3"></rect><rect x="507" y="177" width="26" height="26" rx="4" fill="none" stroke="#d6d3cc" stroke-width="1.2"></rect><path d="M 507 190 L 533 190 L 533 199 Q 533 203 529 203 L 511 203 Q 507 203 507 199 Z" fill="#3c3836"></path><rect x="617" y="177" width="26" height="26" rx="4" fill="none" stroke="#d6d3cc" stroke-width="1" stroke-dasharray="2,3"></rect><rect x="727" y="177" width="26" height="26" rx="4" fill="none" stroke="#d6d3cc" stroke-width="1.2"></rect><path d="M 727 190 L 753 190 L 753 199 Q 753 203 749 203 L 731 203 Q 727 203 727 199 Z" fill="#3c3836"></path><rect x="837" y="177" width="26" height="26" rx="4" fill="none" stroke="#d6d3cc" stroke-width="1.2"></rect><path d="M 837 190 L 863 190 L 863 199 Q 863 203 859 203 L 841 203 Q 837 203 837 199 Z" fill="#3c3836"></path><rect x="287" y="237" width="26" height="26" rx="4" fill="none" stroke="#d6d3cc" stroke-width="1.2"></rect><rect x="287" y="237" width="26" height="26" rx="4" fill="#3c3836"></rect><rect x="397" y="237" width="26" height="26" rx="4" fill="none" stroke="#d6d3cc" stroke-width="1.2"></rect><circle cx="423" cy="237" r="7" fill="#076678"></circle><line x1="419.92" y1="237" x2="426.08" y2="237" stroke="#fafaf7" stroke-width="1.55" stroke-linecap="round"></line><line x1="423" y1="233.92" x2="423" y2="240.08" stroke="#fafaf7" stroke-width="1.55" stroke-linecap="round"></line><rect x="507" y="237" width="26" height="26" rx="4" fill="none" stroke="#d6d3cc" stroke-width="1.2"></rect><path d="M 507 250 L 533 250 L 533 259 Q 533 263 529 263 L 511 263 Q 507 263 507 259 Z" fill="#3c3836"></path><rect x="617" y="237" width="26" height="26" rx="4" fill="none" stroke="#d6d3cc" stroke-width="1" stroke-dasharray="2,3"></rect><rect x="727" y="237" width="26" height="26" rx="4" fill="none" stroke="#d6d3cc" stroke-width="1.2"></rect><path d="M 727 250 L 753 250 L 753 259 Q 753 263 749 263 L 731 263 Q 727 263 727 259 Z" fill="#3c3836"></path><rect x="837" y="237" width="26" height="26" rx="4" fill="none" stroke="#d6d3cc" stroke-width="1.2"></rect><path d="M 837 250 L 863 250 L 863 259 Q 863 263 859 263 L 841 263 Q 837 263 837 259 Z" fill="#3c3836"></path><rect x="287" y="297" width="26" height="26" rx="4" fill="none" stroke="#d6d3cc" stroke-width="1" stroke-dasharray="2,3"></rect><rect x="397" y="297" width="26" height="26" rx="4" fill="none" stroke="#d6d3cc" stroke-width="1.2"></rect><rect x="397" y="297" width="26" height="26" rx="4" fill="#3c3836"></rect><rect x="507" y="297" width="26" height="26" rx="4" fill="none" stroke="#d6d3cc" stroke-width="1.2"></rect><path d="M 507 310 L 533 310 L 533 319 Q 533 323 529 323 L 511 323 Q 507 323 507 319 Z" fill="#3c3836"></path><rect x="617" y="297" width="26" height="26" rx="4" fill="none" stroke="#d6d3cc" stroke-width="1.2"></rect><circle cx="643" cy="297" r="7" fill="#076678"></circle><line x1="639.92" y1="297" x2="646.08" y2="297" stroke="#fafaf7" stroke-width="1.55" stroke-linecap="round"></line><line x1="643" y1="293.92" x2="643" y2="300.08" stroke="#fafaf7" stroke-width="1.55" stroke-linecap="round"></line><rect x="727" y="297" width="26" height="26" rx="4" fill="none" stroke="#d6d3cc" stroke-width="1.2"></rect><path d="M 727 310 L 753 310 L 753 319 Q 753 323 749 323 L 731 323 Q 727 323 727 319 Z" fill="#3c3836"></path><rect x="837" y="297" width="26" height="26" rx="4" fill="none" stroke="#d6d3cc" stroke-width="1" stroke-dasharray="2,3"></rect><rect x="287" y="357" width="26" height="26" rx="4" fill="none" stroke="#d6d3cc" stroke-width="1" stroke-dasharray="2,3"></rect><rect x="397" y="357" width="26" height="26" rx="4" fill="none" stroke="#d6d3cc" stroke-width="1" stroke-dasharray="2,3"></rect><rect x="507" y="357" width="26" height="26" rx="4" fill="none" stroke="#d6d3cc" stroke-width="1.2"></rect><path d="M 507 370 L 533 370 L 533 379 Q 533 383 529 383 L 511 383 Q 507 383 507 379 Z" fill="#3c3836"></path><rect x="617" y="357" width="26" height="26" rx="4" fill="none" stroke="#d6d3cc" stroke-width="1.2"></rect><rect x="617" y="357" width="26" height="26" rx="4" fill="#3c3836"></rect><circle cx="643" cy="357" r="7" fill="#076678"></circle><path d="M 645.34 354.21 A 3.64 3.64 0 1 1 640.21 354.66" fill="none" stroke="#fafaf7" stroke-width="1.4" stroke-linecap="round"></path><path d="M 641.22 353.46 L 640.95 356.95 L 637.83 354.33 Z" fill="#fafaf7"></path><rect x="727" y="357" width="26" height="26" rx="4" fill="none" stroke="#d6d3cc" stroke-width="1.2"></rect><path d="M 727 370 L 753 370 L 753 379 Q 753 383 749 383 L 731 383 Q 727 383 727 379 Z" fill="#3c3836"></path><rect x="837" y="357" width="26" height="26" rx="4" fill="none" stroke="#d6d3cc" stroke-width="1" stroke-dasharray="2,3"></rect><rect x="287" y="417" width="26" height="26" rx="4" fill="none" stroke="#d6d3cc" stroke-width="1.2"></rect><rect x="287" y="417" width="26" height="26" rx="4" fill="#3c3836"></rect><rect x="397" y="417" width="26" height="26" rx="4" fill="none" stroke="#d6d3cc" stroke-width="1" stroke-dasharray="2,3"></rect><rect x="507" y="417" width="26" height="26" rx="4" fill="none" stroke="#d6d3cc" stroke-width="1.2"></rect><path d="M 507 430 L 533 430 L 533 439 Q 533 443 529 443 L 511 443 Q 507 443 507 439 Z" fill="#3c3836"></path><rect x="617" y="417" width="26" height="26" rx="4" fill="none" stroke="#d6d3cc" stroke-width="1.2"></rect><rect x="617" y="417" width="26" height="26" rx="4" fill="#3c3836"></rect><circle cx="643" cy="417" r="7" fill="#076678"></circle><path d="M 645.34 414.21 A 3.64 3.64 0 1 1 640.21 414.66" fill="none" stroke="#fafaf7" stroke-width="1.4" stroke-linecap="round"></path><path d="M 641.22 413.46 L 640.95 416.95 L 637.83 414.33 Z" fill="#fafaf7"></path><rect x="727" y="417" width="26" height="26" rx="4" fill="none" stroke="#d6d3cc" stroke-width="1.2"></rect><path d="M 727 430 L 753 430 L 753 439 Q 753 443 749 443 L 731 443 Q 727 443 727 439 Z" fill="#3c3836"></path><circle cx="753" cy="417" r="7" fill="#076678"></circle><path d="M 755.34 414.21 A 3.64 3.64 0 1 1 750.21 414.66" fill="none" stroke="#fafaf7" stroke-width="1.4" stroke-linecap="round"></path><path d="M 751.22 413.46 L 750.95 416.95 L 747.83 414.33 Z" fill="#fafaf7"></path><rect x="837" y="417" width="26" height="26" rx="4" fill="none" stroke="#d6d3cc" stroke-width="1.2"></rect><path d="M 837 430 L 863 430 L 863 439 Q 863 443 859 443 L 841 443 Q 837 443 837 439 Z" fill="#3c3836"></path><circle cx="863" cy="417" r="7" fill="#076678"></circle><path d="M 865.34 414.21 A 3.64 3.64 0 1 1 860.21 414.66" fill="none" stroke="#fafaf7" stroke-width="1.4" stroke-linecap="round"></path><path d="M 861.22 413.46 L 860.95 416.95 L 857.83 414.33 Z" fill="#fafaf7"></path><text x="32" y="512" font-size="10" letter-spacing="0.06em" fill="#7c6f64">FILL = read depth · CORNER = write action</text><rect x="60" y="530" width="26" height="26" rx="4" fill="none" stroke="#d6d3cc" stroke-width="1.2"></rect><rect x="60" y="530" width="26" height="26" rx="4" fill="#3c3836"></rect><text x="102" y="547" font-size="11" fill="#3c3836">full</text><rect x="178" y="530" width="26" height="26" rx="4" fill="none" stroke="#d6d3cc" stroke-width="1.2"></rect><path d="M 178 543 L 204 543 L 204 552 Q 204 556 200 556 L 182 556 Q 178 556 178 552 Z" fill="#3c3836"></path><text x="220" y="547" font-size="11" fill="#3c3836">scoped</text><rect x="318" y="530" width="26" height="26" rx="4" fill="none" stroke="#d6d3cc" stroke-width="1" stroke-dasharray="2,3"></rect><text x="360" y="547" font-size="11" fill="#3c3836">no access</text><rect x="470" y="530" width="26" height="26" rx="4" fill="none" stroke="#d6d3cc" stroke-width="1.2"></rect><circle cx="496" cy="530" r="7" fill="#076678"></circle><line x1="492.92" y1="530" x2="499.08" y2="530" stroke="#fafaf7" stroke-width="1.55" stroke-linecap="round"></line><line x1="496" y1="526.92" x2="496" y2="533.08" stroke="#fafaf7" stroke-width="1.55" stroke-linecap="round"></line><text x="512" y="547" font-size="11" fill="#3c3836">creates</text><rect x="620" y="530" width="26" height="26" rx="4" fill="none" stroke="#d6d3cc" stroke-width="1.2"></rect><rect x="620" y="530" width="26" height="26" rx="4" fill="#3c3836"></rect><circle cx="646" cy="530" r="7" fill="#076678"></circle><path d="M 648.34 527.21 A 3.64 3.64 0 1 1 643.21 527.66" fill="none" stroke="#fafaf7" stroke-width="1.4" stroke-linecap="round"></path><path d="M 644.22 526.46 L 643.95 529.95 L 640.83 527.33 Z" fill="#fafaf7"></path><text x="662" y="547" font-size="11" fill="#3c3836">updates</text></svg>