<svg viewBox="0 74 914 480" xmlns="http://www.w3.org/2000/svg" role="img" aria-labelledby="mx-title mx-desc" font-family="&#39;IBM Plex Mono&#39;,&#39;Courier New&#39;,monospace">
<title id="mx-title">What each agent is allowed to know</title>
<desc id="mx-desc">Matrix of 5 agent roles by 6 context layers showing whether each agent reads each layer in full, in part, creates it, updates it, or has no relationship to it.</desc>
<rect x="0" y="0" width="1200" height="740" fill="#282828"></rect>
<text x="277" y="133" font-size="12" letter-spacing="0.06em" text-anchor="middle" fill="#928374">Task</text>
<text x="277" y="147" font-size="12" letter-spacing="0.06em" text-anchor="middle" fill="#928374">description</text>
<text x="387" y="140" font-size="12" letter-spacing="0.06em" text-anchor="middle" fill="#928374">Plan</text>
<text x="497" y="140" font-size="12" letter-spacing="0.06em" text-anchor="middle" fill="#928374">Codebase</text>
<text x="607" y="140" font-size="12" letter-spacing="0.06em" text-anchor="middle" fill="#928374">Diff</text>
<text x="717" y="133" font-size="12" letter-spacing="0.06em" text-anchor="middle" fill="#928374">Persisted</text>
<text x="717" y="147" font-size="12" letter-spacing="0.06em" text-anchor="middle" fill="#928374">memory</text>
<text x="827" y="140" font-size="12" letter-spacing="0.06em" text-anchor="middle" fill="#928374">History</text>
<line x1="32" y1="162" x2="882" y2="162" stroke="#504945" stroke-width="1"></line>
<line x1="32" y1="158" x2="882" y2="158" stroke="#3c3836" stroke-width="1"></line>
<line x1="32" y1="220" x2="882" y2="220" stroke="#3c3836" stroke-width="1"></line>
<line x1="32" y1="282" x2="882" y2="282" stroke="#3c3836" stroke-width="1"></line>
<line x1="32" y1="344" x2="882" y2="344" stroke="#3c3836" stroke-width="1"></line>
<line x1="32" y1="406" x2="882" y2="406" stroke="#3c3836" stroke-width="1"></line>
<line x1="32" y1="468" x2="882" y2="468" stroke="#3c3836" stroke-width="1"></line>
<text x="32" y="193" font-size="13" fill="#ebdbb2">Brainstorming</text>
<text x="32" y="255" font-size="13" fill="#ebdbb2">Planning</text>
<text x="32" y="317" font-size="13" fill="#ebdbb2">Execution</text>
<text x="32" y="379" font-size="13" fill="#ebdbb2">Internal review</text>
<text x="32" y="441" font-size="13" fill="#ebdbb2">Documentation</text>
<path d="M 277 173 L 293 189 L 277 205 L 261 189 Z" fill="#83a598"></path>
<line x1="272.5" y1="189" x2="281.5" y2="189" stroke="#282828" stroke-width="2.2" stroke-linecap="round"></line>
<line x1="277" y1="184.5" x2="277" y2="193.5" stroke="#282828" stroke-width="2.2" stroke-linecap="round"></line>
<line x1="377" y1="189" x2="397" y2="189" stroke="#665c54" stroke-width="1.6" stroke-dasharray="3,3" stroke-linecap="round"></line>
<circle cx="497" cy="189" r="15" fill="none" stroke="#504945" stroke-width="1.4"></circle>
<path d="M 497 189 L 497.00 174.00 A 15 15 0 0 1 501.64 203.27 Z" fill="#d5c4a1"></path>
<line x1="597" y1="189" x2="617" y2="189" stroke="#665c54" stroke-width="1.6" stroke-dasharray="3,3" stroke-linecap="round"></line>
<circle cx="717" cy="189" r="15" fill="none" stroke="#504945" stroke-width="1.4"></circle>
<path d="M 717 189 L 717.00 174.00 A 15 15 0 0 1 721.64 203.27 Z" fill="#d5c4a1"></path>
<circle cx="827" cy="189" r="15" fill="none" stroke="#504945" stroke-width="1.4"></circle>
<path d="M 827 189 L 827.00 174.00 A 15 15 0 0 1 831.64 203.27 Z" fill="#d5c4a1"></path>
<circle cx="277" cy="251" r="15" fill="#d5c4a1"></circle>
<path d="M 387 235 L 403 251 L 387 267 L 371 251 Z" fill="#83a598"></path>
<line x1="382.5" y1="251" x2="391.5" y2="251" stroke="#282828" stroke-width="2.2" stroke-linecap="round"></line>
<line x1="387" y1="246.5" x2="387" y2="255.5" stroke="#282828" stroke-width="2.2" stroke-linecap="round"></line>
<circle cx="497" cy="251" r="15" fill="none" stroke="#504945" stroke-width="1.4"></circle>
<path d="M 497 251 L 497.00 236.00 A 15 15 0 0 1 501.64 265.27 Z" fill="#d5c4a1"></path>
<line x1="597" y1="251" x2="617" y2="251" stroke="#665c54" stroke-width="1.6" stroke-dasharray="3,3" stroke-linecap="round"></line>
<circle cx="717" cy="251" r="15" fill="none" stroke="#504945" stroke-width="1.4"></circle>
<path d="M 717 251 L 717.00 236.00 A 15 15 0 0 1 721.64 265.27 Z" fill="#d5c4a1"></path>
<circle cx="827" cy="251" r="15" fill="none" stroke="#504945" stroke-width="1.4"></circle>
<path d="M 827 251 L 827.00 236.00 A 15 15 0 0 1 831.64 265.27 Z" fill="#d5c4a1"></path>
<line x1="267" y1="313" x2="287" y2="313" stroke="#665c54" stroke-width="1.6" stroke-dasharray="3,3" stroke-linecap="round"></line>
<circle cx="387" cy="313" r="15" fill="#d5c4a1"></circle>
<circle cx="497" cy="313" r="15" fill="none" stroke="#504945" stroke-width="1.4"></circle>
<path d="M 497 313 L 497.00 298.00 A 15 15 0 0 1 501.64 327.27 Z" fill="#d5c4a1"></path>
<path d="M 607 297 L 623 313 L 607 329 L 591 313 Z" fill="#83a598"></path>
<line x1="602.5" y1="313" x2="611.5" y2="313" stroke="#282828" stroke-width="2.2" stroke-linecap="round"></line>
<line x1="607" y1="308.5" x2="607" y2="317.5" stroke="#282828" stroke-width="2.2" stroke-linecap="round"></line>
<circle cx="717" cy="313" r="15" fill="none" stroke="#504945" stroke-width="1.4"></circle>
<path d="M 717 313 L 717.00 298.00 A 15 15 0 0 1 721.64 327.27 Z" fill="#d5c4a1"></path>
<line x1="817" y1="313" x2="837" y2="313" stroke="#665c54" stroke-width="1.6" stroke-dasharray="3,3" stroke-linecap="round"></line>
<line x1="267" y1="375" x2="287" y2="375" stroke="#665c54" stroke-width="1.6" stroke-dasharray="3,3" stroke-linecap="round"></line>
<circle cx="387" cy="375" r="15" fill="none" stroke="#504945" stroke-width="1.4"></circle>
<path d="M 387 375 L 387.00 360.00 A 15 15 0 0 1 391.64 389.27 Z" fill="#d5c4a1"></path>
<circle cx="497" cy="375" r="15" fill="none" stroke="#504945" stroke-width="1.4"></circle>
<path d="M 497 375 L 497.00 360.00 A 15 15 0 0 1 501.64 389.27 Z" fill="#d5c4a1"></path>
<path d="M 607 359 L 623 375 L 607 391 L 591 375 Z" fill="none" stroke="#83a598" stroke-width="1.6"></path>
<path d="M 614.79 370.50 A 9 9 0 1 1 598.54 371.92 M 598.54 371.92 L 599.50 377.34 M 598.54 371.92 L 594.33 375.46" fill="none" stroke="#83a598" stroke-width="1.6" stroke-linecap="round" stroke-linejoin="round"></path>
<circle cx="717" cy="375" r="15" fill="none" stroke="#504945" stroke-width="1.4"></circle>
<path d="M 717 375 L 717.00 360.00 A 15 15 0 0 1 721.64 389.27 Z" fill="#d5c4a1"></path>
<line x1="817" y1="375" x2="837" y2="375" stroke="#665c54" stroke-width="1.6" stroke-dasharray="3,3" stroke-linecap="round"></line>
<circle cx="277" cy="437" r="15" fill="none" stroke="#504945" stroke-width="1.4"></circle>
<path d="M 277 437 L 277.00 422.00 A 15 15 0 0 1 281.64 451.27 Z" fill="#d5c4a1"></path>
<circle cx="387" cy="437" r="15" fill="#d5c4a1"></circle>
<circle cx="497" cy="437" r="15" fill="none" stroke="#504945" stroke-width="1.4"></circle>
<path d="M 497 437 L 497.00 422.00 A 15 15 0 0 1 501.64 451.27 Z" fill="#d5c4a1"></path>
<path d="M 607 421 L 623 437 L 607 453 L 591 437 Z" fill="none" stroke="#83a598" stroke-width="1.6"></path>
<path d="M 614.79 432.50 A 9 9 0 1 1 598.54 433.92 M 598.54 433.92 L 599.50 439.34 M 598.54 433.92 L 594.33 437.46" fill="none" stroke="#83a598" stroke-width="1.6" stroke-linecap="round" stroke-linejoin="round"></path>
<path d="M 717 421 L 733 437 L 717 453 L 701 437 Z" fill="none" stroke="#83a598" stroke-width="1.6"></path>
<path d="M 724.79 432.50 A 9 9 0 1 1 708.54 433.92 M 708.54 433.92 L 709.50 439.34 M 708.54 433.92 L 704.33 437.46" fill="none" stroke="#83a598" stroke-width="1.6" stroke-linecap="round" stroke-linejoin="round"></path>
<path d="M 827 421 L 843 437 L 827 453 L 811 437 Z" fill="none" stroke="#83a598" stroke-width="1.6"></path>
<path d="M 834.79 432.50 A 9 9 0 1 1 818.54 433.92 M 818.54 433.92 L 819.50 439.34 M 818.54 433.92 L 814.33 437.46" fill="none" stroke="#83a598" stroke-width="1.6" stroke-linecap="round" stroke-linejoin="round"></path>
<text x="32" y="494" font-size="10.5" letter-spacing="0.08em" fill="#928374">LEGEND</text>
<circle cx="48" cy="514" r="11" fill="#d5c4a1"></circle>
<text x="68" y="518" font-size="11.5" fill="#d5c4a1">full read</text>
<circle cx="208" cy="514" r="11" fill="none" stroke="#504945" stroke-width="1.4"></circle>
<path d="M 208 514 L 208.00 503.00 A 11 11 0 0 1 211.40 524.46 Z" fill="#d5c4a1"></path>
<text x="228" y="518" font-size="11.5" fill="#d5c4a1">scoped read</text>
<line x1="360" y1="514" x2="376" y2="514" stroke="#665c54" stroke-width="1.6" stroke-dasharray="3,3" stroke-linecap="round"></line>
<text x="388" y="518" font-size="11.5" fill="#d5c4a1">no relationship</text>
<path d="M 528 502 L 540 514 L 528 526 L 516 514 Z" fill="#83a598"></path>
<line x1="524.5" y1="514" x2="531.5" y2="514" stroke="#282828" stroke-width="1.8" stroke-linecap="round"></line>
<line x1="528" y1="510.5" x2="528" y2="517.5" stroke="#282828" stroke-width="1.8" stroke-linecap="round"></line>
<text x="548" y="518" font-size="11.5" fill="#d5c4a1">creates</text>
<path d="M 688 502 L 700 514 L 688 526 L 676 514 Z" fill="none" stroke="#83a598" stroke-width="1.6"></path>
<path d="M 693.84 510.63 A 6.75 6.75 0 1 1 681.66 511.69 M 681.66 511.69 L 682.38 515.76 M 681.66 511.69 L 678.50 514.35" fill="none" stroke="#83a598" stroke-width="1.6" stroke-linecap="round" stroke-linejoin="round"></path>
<text x="708" y="518" font-size="11.5" fill="#d5c4a1">updates</text>
</svg>
