<?xml version="1.0" encoding="UTF-8" standalone="no"?>
<!-- Created with Inkscape (http://www.inkscape.org/) -->

<svg
   width="12.586987mm"
   height="13.086428mm"
   viewBox="0 0 12.586986 13.086428"
   version="1.1"
   id="svg8"
   sodipodi:docname="logo.svg"
   inkscape:version="1.2.2 (1:1.2.2+202212051552+b0a8486541)"
   inkscape:export-filename="/home/cedoor/Pictures/Avatars/main.png"
   inkscape:export-xdpi="133.10001"
   inkscape:export-ydpi="133.10001"
   xmlns:inkscape="http://www.inkscape.org/namespaces/inkscape"
   xmlns:sodipodi="http://sodipodi.sourceforge.net/DTD/sodipodi-0.dtd"
   xmlns="http://www.w3.org/2000/svg"
   xmlns:svg="http://www.w3.org/2000/svg"
   xmlns:rdf="http://www.w3.org/1999/02/22-rdf-syntax-ns#"
   xmlns:cc="http://creativecommons.org/ns#"
   xmlns:dc="http://purl.org/dc/elements/1.1/">
  <defs
     id="defs2" />
  <sodipodi:namedview
     id="base"
     pagecolor="#ffffff"
     bordercolor="#666666"
     borderopacity="1.0"
     inkscape:pageopacity="0.0"
     inkscape:pageshadow="2"
     inkscape:zoom="0.90509668"
     inkscape:cx="33.14563"
     inkscape:cy="-193.90194"
     inkscape:document-units="mm"
     inkscape:current-layer="g4628"
     showgrid="false"
     inkscape:window-width="1920"
     inkscape:window-height="1025"
     inkscape:window-x="0"
     inkscape:window-y="0"
     inkscape:window-maximized="1"
     inkscape:snap-bbox="true"
     inkscape:snap-smooth-nodes="true"
     inkscape:snap-midpoints="false"
     inkscape:object-nodes="true"
     inkscape:snap-bbox-midpoints="false"
     inkscape:snap-grids="true"
     inkscape:snap-to-guides="true"
     inkscape:snap-page="false"
     inkscape:showpageshadow="2"
     inkscape:pagecheckerboard="0"
     inkscape:deskcolor="#d1d1d1">
    <inkscape:grid
       type="xygrid"
       id="grid4630"
       originx="-34.341206"
       originy="-208.87605" />
  </sodipodi:namedview>
  <metadata
     id="metadata5">
    <rdf:RDF>
      <cc:Work
         rdf:about="">
        <dc:format>image/svg+xml</dc:format>
        <dc:type
           rdf:resource="http://purl.org/dc/dcmitype/StillImage" />
      </cc:Work>
    </rdf:RDF>
  </metadata>
  <g
     inkscape:label="Layer 1"
     inkscape:groupmode="layer"
     id="layer1"
     transform="translate(-34.341214,-208.87604)">
    <path
       style="fill:#3b281a;fill-opacity:1;stroke-width:0.357143"
       d=""
       id="path12764"
       inkscape:connector-curvature="0"
       transform="scale(0.26458333)" />
    <g
       id="g4583"
       transform="translate(-0.97125344,1.8272997)">
      <g
         id="g4598"
         transform="translate(1.5874998,1.5875)">
        <g
           id="g4613"
           transform="matrix(1.4009755,0,0,1.4009755,-40.011626,-23.10995)">
          <g
             id="g4628"
             transform="translate(-1.7201724,44.321356)">
            <g
               id="g852"
               transform="matrix(0.0890688,0,0,0.0890688,49.864498,116.38787)">
              <path
                 sodipodi:nodetypes="ccccccccccc"
                 inkscape:connector-curvature="0"
                 id="path15"
                 d="m 81.465518,39.222431 -9.377688,-1.183402 -5.876372,6.884428 -0.189346,8.038533 2.205714,-2.021905 -0.36762,9.925727 2.938346,-2.701094 78.529468,9.502675 1.73809,-30.135427 c 0,0 -41.191,-5.14122 -69.488694,-8.491101 z"
                 style="fill:#e1e1e1;fill-opacity:1;stroke:none;stroke-width:0.514667px;stroke-linecap:butt;stroke-linejoin:miter;stroke-opacity:1" />
              <path
                 inkscape:connector-curvature="0"
                 id="path29"
                 d="M 92.881057,98.54815 C 93.809754,78.3488 93.809754,78.3488 93.809754,78.3488 l -10.91222,-2.089583 -0.928706,21.360226 z"
                 style="fill:#343434;fill-opacity:1;stroke:none;stroke-width:0.650092px;stroke-linecap:butt;stroke-linejoin:miter;stroke-opacity:1" />
              <path
                 inkscape:connector-curvature="0"
                 id="path33"
                 d="m 99.804622,62.206069 c 0,-9.667238 0,-9.667238 0,-9.667238 l 19.483828,2.085091 v 10.046348 0 0"
                 style="fill:#fbbd4b;fill-opacity:1;stroke:none;stroke-width:0.522647px;stroke-linecap:butt;stroke-linejoin:miter;stroke-opacity:1" />
              <path
                 inkscape:connector-curvature="0"
                 id="path10"
                 d="m 80.685679,48.320548 0.779839,-9.098117 9.877952,0.779841 v 9.358057 z"
                 style="fill:#343434;fill-opacity:1;stroke:none;stroke-width:0.514667px;stroke-linecap:butt;stroke-linejoin:miter;stroke-opacity:1"
                 sodipodi:nodetypes="ccccc" />
              <path
                 sodipodi:nodetypes="ccccc"
                 inkscape:connector-curvature="0"
                 id="path12"
                 d="m 130.85539,45.720816 0.36763,9.022613 9.25022,1.375272 0.76247,-9.376243 z"
                 style="fill:#343434;fill-opacity:1;stroke:none;stroke-width:0.514667px;stroke-linecap:butt;stroke-linejoin:miter;stroke-opacity:1" />
              <path
                 sodipodi:nodetypes="cccsccccccccccsccccccc"
                 inkscape:connector-curvature="0"
                 id="path4531"
                 d="m 67.716272,61.079921 1.265426,-1.497836 c 1.14002,-1.349403 1.320065,-1.489864 1.816854,-1.417367 0.303282,0.04429 17.838727,2.153965 38.967658,4.688233 21.12893,2.534269 38.67399,4.654267 38.98902,4.711106 l 0.57279,0.103336 0.13591,9.199415 c 0.0747,5.059674 -0.27448,8.291416 -0.27448,8.291416 0,0 -8.7315,0.372009 -19.63908,-0.923837 l -20.66326,-2.454845 -0.046,-8.41412 -11.657234,-1.337369 C 90.364884,71.183907 84.430128,70.443455 83.995665,70.382602 l -0.789931,-0.110655 v 4.034951 c 0,2.219225 -0.118849,3.782839 -0.144122,3.780972 -0.02527,-0.0022 -1.60208,-0.08215 -3.623986,-0.484681 l -3.676195,-0.731886 -0.575063,0.688316 c -0.316284,0.378569 -2.085807,2.590183 -3.932279,4.914691 -1.846466,2.324514 -1.629686,5.489055 -4.30747,6.253588 -0.0373,-9.429631 0.769653,-27.647977 0.769653,-27.647977 z"
                 style="fill:#4b3322;fill-opacity:1;stroke:none;stroke-width:0.185814" />
              <path
                 sodipodi:nodetypes="cccc"
                 inkscape:connector-curvature="0"
                 id="path31"
                 d="m 124.57938,83.121448 -0.7356,15.931572 9.94643,1.70854 0.11226,-16.467685"
                 style="fill:#343434;fill-opacity:1;stroke:none;stroke-width:0.584313px;stroke-linecap:butt;stroke-linejoin:miter;stroke-opacity:1" />
              <path
                 sodipodi:nodetypes="csccccccccccc"
                 inkscape:connector-curvature="0"
                 id="path4533"
                 d="m 50.495449,123.8611 c 0.0591,-0.85932 0.897461,-16.86453 1.863007,-35.567169 C 53.324009,69.591299 54.155205,53.958283 54.205571,53.5539 64.670242,38.215709 72.803714,27.419555 72.803714,27.419555 c 0,0 5.920058,0.829695 8.773702,1.62131 0.102932,0.102932 -0.111898,10.181566 -0.111898,10.181566 l -9.377688,-1.183402 -5.876372,6.884428 -0.189346,8.038533 c 0,0 1.398683,-0.997053 2.205714,-2.021905 -0.722573,19.695313 -1.021996,38.295203 -2.006972,58.736595 0,0 -10.565199,10.48784 -15.832879,15.7468 z"
                 style="fill:#2c4667;fill-opacity:1;stroke-width:0.18381" />
              <path
                 sodipodi:nodetypes="sccscsccscs"
                 inkscape:connector-curvature="0"
                 id="path4535"
                 d="m 86.78999,128.45576 c -19.612493,-2.09737 -36.402015,-3.03228 -36.402015,-3.03228 l 11.50758,-11.78556 32.063016,3.80727 c 17.817339,2.11568 32.519649,4.17976 32.726369,4.14806 0.20672,-0.0317 4.45179,-3.22332 9.43347,-7.0925 4.98169,-3.86918 9.08724,-7.00524 9.12346,-6.96904 0.0654,0.0655 -0.26195,9.03299 -0.33156,9.08119 -0.0199,0.0139 -4.74406,3.55253 -10.49783,7.86368 -9.96716,7.46812 -10.49684,7.83734 -11.21238,7.81548 -0.41306,-0.0132 -16.7976,-1.73895 -36.41011,-3.8363 z"
                 style="fill:#1e2f46;fill-opacity:1;stroke-width:0.18381" />
              <path
                 inkscape:connector-curvature="0"
                 id="path4537"
                 d="m 145.51953,47.251598 c -2.31921,-0.243135 -4.24692,-0.472244 -4.28382,-0.50914 -0.1025,-0.102433 0.37938,-10.01601 0.49527,-10.190523 0.0558,-0.08404 2.16933,0.0784 4.69672,0.360968 2.52739,0.282562 4.66421,0.517682 4.74849,0.522483 0.1416,0.008 0.11248,1.312114 -0.17573,7.866595 l -0.1071,2.435482 -0.57854,-0.02192 c -0.3182,-0.01209 -2.47609,-0.220829 -4.79531,-0.463969 z"
                 style="fill:#2c4667;fill-opacity:1;stroke:none;stroke-width:0.18381" />
              <path
                 inkscape:connector-curvature="0"
                 id="path4541"
                 d="m 113.1513,106.17554 c -1.30763,-0.16508 -2.91245,-0.36473 -3.56627,-0.44369 l -1.18874,-0.14357 v -3.94056 -3.940561 l 0.62268,0.104844 c 0.34247,0.05768 1.79445,0.209437 3.22662,0.337329 1.43216,0.1279 3.03699,0.293537 3.56627,0.368116 l 0.96232,0.135567 v 2.545015 c 0,1.39976 -0.0655,3.17131 -0.14554,3.9368 -0.16756,1.60318 0.17231,1.50146 -3.47739,1.04074 z"
                 style="fill:#fc6a6c;fill-opacity:1;stroke-width:0.22643" />
              <path
                 inkscape:connector-curvature="0"
                 id="path4543"
                 d="m 102.29991,105.84059 c -2.51778,-0.30558 -4.596723,-0.5713 -4.619855,-0.59051 -0.111514,-0.0924 1.446052,-18.474897 1.576405,-18.605249 0.128639,-0.12864 17.13108,2.645523 18.31705,2.988675 0.4033,0.116689 0.41776,0.337503 0.29968,4.579903 -0.0681,2.451526 -0.17336,4.506604 -0.23359,4.566841 -0.10555,0.105651 -6.87889,-0.473503 -8.36137,-0.714885 L 108.55249,97.9472 v 4.25293 4.25294 l -0.83741,-0.0285 c -0.46055,-0.0157 -2.89739,-0.27847 -5.41517,-0.58404 z"
                 style="fill:#63030f;fill-opacity:1;stroke-width:0.223307" />
              <path
                 sodipodi:nodetypes="ccccccccccccscccccscscccccscccccccccccccccccccccc"
                 inkscape:connector-curvature="0"
                 id="path4545"
                 d="m 93.998289,117.75182 c -17.33785,-2.2575 -31.563311,-4.10877 -31.612131,-4.1139 -0.04884,-0.006 0.794012,-0.89851 1.872965,-1.98529 l 1.961731,-1.97595 0.200639,-5.33049 c 0.110343,-2.93176 0.36355,-7.953729 0.562675,-11.159932 l -0.03755,-4.45836 4.722283,-6.676378 4.3227,-5.305263 3.535007,0.670808 3.535,0.670805 0.05059,0.538201 c 0.02779,0.296012 -0.109832,4.094921 -0.305872,8.442017 -0.196042,4.347105 -0.337113,7.923359 -0.313484,7.947251 0.07984,0.08075 9.138338,0.822575 9.206917,0.753996 C 91.847237,95.62186 92.713812,80.256886 92.57759,80.138066 89.404638,79.361607 83.061605,78.08787 83.061605,78.08787 l 0.144122,-7.815923 13.182286,1.570489 c 6.826297,0.81326 12.427837,1.518109 12.453117,1.522986 0.0252,0.0046 0.046,1.900034 0.046,4.211485 v 4.202635 l 0.7812,0.100936 c 0.42965,0.05553 3.94502,0.413048 7.81192,0.794547 l 7.0307,0.693606 -0.004,0.65497 c -0.003,0.360233 -0.16088,3.880588 -0.35281,7.823017 -0.19194,3.942428 -0.33173,7.18531 -0.31063,7.206402 0.0891,0.0891 8.76971,1.20395 8.83855,1.13511 0.0415,-0.0416 0.28812,-3.217379 0.54786,-7.057342 0.25974,-3.839953 0.51726,-7.399158 0.57228,-7.909332 l 0.1,-0.927581 4.25574,0.428152 c 2.34066,0.235477 4.28988,0.46227 4.33159,0.503981 0.0418,0.04172 -0.13049,5.60154 -0.38277,12.355167 -0.25222,6.753615 -0.38806,12.324005 -0.30186,12.378645 0.0862,0.0547 -3.27415,2.76352 -7.46749,6.01977 -6.59392,5.12034 -7.70475,5.91747 -8.21995,5.89861 -0.32765,-0.0118 -14.78122,-1.86885 -32.119087,-4.12638 z M 116.3177,101.72691 c 0.0657,-2.401003 0.13704,-6.014278 0.15842,-8.029476 l 0.0389,-3.663998 -8.3568,-1.427946 c -4.59624,-0.78536 -8.367372,-1.411211 -8.380305,-1.390768 -0.04793,0.07575 -1.337041,16.764318 -1.298,16.803348 0.06351,0.0635 16.495215,2.03352 17.141455,2.05507 l 0.57682,0.0193 z"
                 style="fill:#ebb991;fill-opacity:1;stroke-width:0.18381" />
            </g>
            <g
               id="g882"
               transform="matrix(0.34305193,0,0,0.34305193,-11.497174,48.677828)">
              <g
                 id="g1001"
                 transform="translate(221.20528,-122.14634)" />
            </g>
          </g>
        </g>
      </g>
    </g>
  </g>
</svg>
